<svg width="35" height="20" viewBox="0 0 35 20" fill="none" xmlns="http://www.w3.org/2000/svg">
<g clip-path="url(#clip0_1414_8357)">
<rect width="9.86843" height="21.4761" rx="4.93421" transform="matrix(0.868356 -0.495941 0.495173 0.868795 17.5 3.08679)" fill="#101828"/>
<path fill-rule="evenodd" clip-rule="evenodd" d="M8.07794 9.69113C7.73604 9.17804 7.05044 9.01032 6.50682 9.3208C6.22701 9.48061 6.037 9.73729 5.95477 10.0247C5.83315 10.7488 6.62512 11.7064 7.50583 12.7713L7.50583 12.7713C8.62352 14.1227 9.88413 15.647 9.60169 17.0862C9.09126 19.6874 5.25174 20.9928 2.46019 19.2954C0.11314 17.9235 -0.697744 14.9129 0.65154 12.5456L6.36489 2.52132C7.31765 0.849662 9.09432 -0.0570251 10.8921 0.0207663C12.6902 -0.057281 14.4672 0.849424 15.4201 2.52129L21.1334 12.5455C22.4911 14.9276 21.6616 17.961 19.2807 19.3208C16.8998 20.6806 13.8691 19.8519 12.5114 17.4698L8.07794 9.69113Z" fill="#101828"/>
</g>
<defs>
<clipPath id="clip0_1414_8357">
<rect width="35" height="20" fill="white"/>
</clipPath>
</defs>
</svg>
